<svg version="1.1" id="smamoape" xmlns="http://www.w3.org/2000/svg" xmlns:xlink="http://www.w3.org/1999/xlink" x="0px" y="0px" viewBox="9 13.902 100 57.879" xml:space="preserve">
<path style="fill:#333;" d="M77.812,17.006h-3.905v-2.461c0-0.582-0.394-0.642-1.436-0.642c-1.12,0-1.469,0.091-1.469,0.837l0.007,2.27 c-2.696,0-2.487-0.017-3.576-0.017c-1.268,0-1.815,0.642-1.815,1.788v3.36c-4.066,4.814-0.589,20.703-0.589,20.703v2.3 c0,0-2.621,0.215-2.405,0c0.213-0.214,1.802-4.737-1.393-13.961c-3.798-10.966-16.689-12.424-16.689-12.424s-1.936-3.52-5.694-3.52 c-1.995,0-4.383,3.569-4.383,5.851c0,0.613-0.123,0.661-0.221,0.805c-0.401,0.589-0.547,1.929-0.547,1.929 c-0.166,0.166-0.344,0.392-0.461,0.507c-0.116,0.116-0.409,3.197-0.409,3.759c0,0.562,0.766,0.454,0.766,0.454 c-0.084,0.086-0.134,0.464-0.025,0.695c0.106,0.233,1.043,0,1.043,0l0.195,0.091c1.399,0.409,2.872,0.363,3.972-0.675 c1.098-1.038,2.524-1.356,2.524-1.356s1.961,0.947,1.961,2.785c0,1.298-0.022,3.24-0.611,4.113 c-0.588,0.874-2.352,2.811-2.352,2.811c-3.367-0.012-4.51-0.154-5.294,0.975c-2.166,3.119,1.151,5.351,1.151,5.351 s0.328,1.557,1.012,3.906c0.682,2.35-0.044,6.303-0.044,6.303c-0.697,0.159-2.482,0.74-3.467,1.247 c-0.986,0.507-1.002,1.973-0.813,2.336c0.19,0.363,1.002,0.432,1.479,0.261c0.479-0.175,0.188,1.071,0.188,1.071 c0,0.524,0.654,0.188,0.654,0.188c0.057-0.232,0.361-0.014,0.361-0.014c-0.116,0.713,1.204,0.145,1.204,0.145 c0.13,0.321,0.762,0.181,0.827,0.116c0.065-0.065,0.58-0.579,0.884-0.436c0.305,0.147,0.727,0.147,0.727,0.147 c0.71-1,1.914-0.784,2.684-0.784c0.767,0,0.976-1.014,0.976-1.014c0.952-4.513,2.622-5.082,2.622-5.082 c1.124,1.926,6.205,5.194,6.525,5.455c0.526,0.429,1.338,1.445,1.338,2.356c0,0.908-1.37,3.912-2.634,6.604 c-0.98,2.089-1.947,2.99-1.717,3.72c0.347,1.079,5.015,1.846,6.971,2.031c1.985,0.188,6.003,0.219,7.971,0 c5.583-0.62,7.45-2.072,7.437-2.515c-0.031-0.897-3.963-9.21-3.648-10.286c0.425-1.432,3.275-3.727,5.68-6.136 c2.408-2.406,2.034-6.178,2.034-6.178s0,0,2.008,0c2.004,0,2.109-2.113,2.109-2.113s0-24.661,0-25.944 C79.523,17.434,78.982,17.006,77.812,17.006z M49.855,40.378c0,0-3.245-2.159-3.365-1.932c0,0,1.981-2.819,1.981-2.918 C48.472,35.526,50.644,38.138,49.855,40.378z"/>
</svg>
