<svg version="1.1" id="smamologo" xmlns="http://www.w3.org/2000/svg" xmlns:xlink="http://www.w3.org/1999/xlink" x="0px" y="0px" viewBox="10.836 13.902 100 87.879" style="enable-background:new 10.836 13.902 100 87.879;" xml:space="preserve">
<g class="logo"> <path d="M77.812,17.006h-3.905v-2.461c0-0.582-0.394-0.642-1.436-0.642c-1.12,0-1.469,0.091-1.469,0.837l0.007,2.27 c-2.696,0-2.487-0.017-3.576-0.017c-1.268,0-1.815,0.642-1.815,1.788v3.36c-4.066,4.814-0.589,20.703-0.589,20.703v2.3 c0,0-2.621,0.215-2.405,0c0.213-0.214,1.802-4.737-1.393-13.961c-3.798-10.966-16.689-12.424-16.689-12.424s-1.936-3.52-5.694-3.52 c-1.995,0-4.383,3.569-4.383,5.851c0,0.613-0.123,0.661-0.221,0.805c-0.401,0.589-0.547,1.929-0.547,1.929 c-0.166,0.166-0.344,0.392-0.461,0.507c-0.116,0.116-0.409,3.197-0.409,3.759c0,0.562,0.766,0.454,0.766,0.454 c-0.084,0.086-0.134,0.464-0.025,0.695c0.106,0.233,1.043,0,1.043,0l0.195,0.091c1.399,0.409,2.872,0.363,3.972-0.675 c1.098-1.038,2.524-1.356,2.524-1.356s1.961,0.947,1.961,2.785c0,1.298-0.022,3.24-0.611,4.113 c-0.588,0.874-2.352,2.811-2.352,2.811c-3.367-0.012-4.51-0.154-5.294,0.975c-2.166,3.119,1.151,5.351,1.151,5.351 s0.328,1.557,1.012,3.906c0.682,2.35-0.044,6.303-0.044,6.303c-0.697,0.159-2.482,0.74-3.467,1.247 c-0.986,0.507-1.002,1.973-0.813,2.336c0.19,0.363,1.002,0.432,1.479,0.261c0.479-0.175,0.188,1.071,0.188,1.071 c0,0.524,0.654,0.188,0.654,0.188c0.057-0.232,0.361-0.014,0.361-0.014c-0.116,0.713,1.204,0.145,1.204,0.145 c0.13,0.321,0.762,0.181,0.827,0.116c0.065-0.065,0.58-0.579,0.884-0.436c0.305,0.147,0.727,0.147,0.727,0.147 c0.71-1,1.914-0.784,2.684-0.784c0.767,0,0.976-1.014,0.976-1.014c0.952-4.513,2.622-5.082,2.622-5.082 c1.124,1.926,6.205,5.194,6.525,5.455c0.526,0.429,1.338,1.445,1.338,2.356c0,0.908-1.37,3.912-2.634,6.604 c-0.98,2.089-1.947,2.99-1.717,3.72c0.347,1.079,5.015,1.846,6.971,2.031c1.985,0.188,6.003,0.219,7.971,0 c5.583-0.62,7.45-2.072,7.437-2.515c-0.031-0.897-3.963-9.21-3.648-10.286c0.425-1.432,3.275-3.727,5.68-6.136 c2.408-2.406,2.034-6.178,2.034-6.178s0,0,2.008,0c2.004,0,2.109-2.113,2.109-2.113s0-24.661,0-25.944 C79.523,17.434,78.982,17.006,77.812,17.006z M49.855,40.378c0,0-3.245-2.159-3.365-1.932c0,0,1.981-2.819,1.981-2.918 C48.472,35.526,50.644,38.138,49.855,40.378z"/> </g>
<g class="smart"> <path d="M24.769,77.1h0.782c1.056,0.346,1.583,0.9,1.583,1.672c-0.661,0.146-0.99,0.314-0.99,0.5l-0.577-0.059l0.134-0.312 l-0.163-0.055l-0.118,0.335l-0.149-0.055l-0.058-0.195l-0.223-0.071l0.178,0.25c-2.326,0-4.751,0.948-7.272,2.854l-0.593,0.842 c0,0.583,2.948,1.586,8.841,3.015c1.074,0.493,1.927,1.103,2.558,1.836v0.514c-2.208,2.151-5.282,3.658-9.225,4.525l-2.749,0.503 l-0.207-0.178l-0.591,0.178c-2.603,0-4.302-0.784-5.1-2.35v-0.343c0.305-0.671,0.567-1.003,0.783-1.003 c0.887,0.866,1.74,1.428,2.557,1.685h0.784c4.158,0,7.628-1.12,10.406-3.356v-0.339c-4.416-1.056-7.361-1.891-8.839-2.515 c-1.312-0.966-1.966-1.97-1.966-3.014c0.541-1.412,2.833-2.81,6.873-4.2C22.511,77.318,23.625,77.1,24.769,77.1z"/> <path d="M30.252,83.2c1.331,0,2.342,1.404,3.032,4.209h0.265c0.494-2.075,1.192-3.116,2.101-3.116 c0.905,0.188,2.003,1.695,3.295,4.524c0.314,0.504,0.971,1.175,1.966,2.024v0.147c0,0.552-0.177,0.911-0.531,1.079 c-0.68,0-1.729-1.028-3.149-3.09c-0.551-1.34-1.034-2.172-1.448-2.497c-0.315,0.277-0.927,1.729-1.833,4.36l-0.134,0.147h-0.398 c-0.531-0.175-1.281-1.942-2.247-5.292l-0.118-0.147h-0.132l-0.268,1.243v0.62c0,1.764,0.567,3.833,1.701,6.21v0.486h-0.252 c-1.488-0.521-2.454-2.911-2.898-7.173V86.32C29.202,84.83,29.554,83.793,30.252,83.2z"/> <path d="M46.263,83.937l0.932,0.356c0.048,0.856-0.194,1.993-0.725,3.415l-0.134,1.021c0.019,0.977,0.454,1.825,1.302,2.559 l0.073,0.754c-0.356,0.048-0.646,0.071-0.873,0.071c-0.602,0-1.315-0.6-2.143-1.805l-0.236-1.076l-0.06-0.369l-0.119,0.014 c-1.9,1.774-3.336,2.695-4.302,2.764c-0.57-0.068-0.93-0.257-1.079-0.562l-0.103-0.695C39.438,86.214,41.926,84.066,46.263,83.937z M40.733,89.674l0.694-0.518c2.236-1.747,3.504-3.014,3.799-3.815h-0.117C42.556,86.218,41.099,87.663,40.733,89.674z"/> <path d="M52.678,83.967c1.014,0.195,1.522,0.682,1.522,1.449c-0.196,0.432-0.398,0.672-0.606,0.709l-0.621-0.134l-2.439,5.471 l-1.063,0.134h-0.312c-1.014-0.918-1.521-2.258-1.521-4.021v-0.575c0-1.056,0.152-1.583,0.457-1.583h0.459 c0.581,0,0.936,1.104,1.063,3.309h0.163C50.825,85.553,51.791,83.967,52.678,83.967z"/> <path d="M56.329,79.638h0.561c0.355,0,0.8,1.757,1.33,5.278l0.223,0.616l1.772-0.16c2.525,0,3.785,0.312,3.785,0.932l-0.219,0.312 l-0.123-0.151l-0.545,0.312l-0.12-0.161h-0.103l-0.442,0.161v-0.161l-0.119,0.161h-0.324v-0.161l-3.118,0.308 c0.669,1.822,1.005,3.069,1.005,3.741c-0.307,0.521-0.682,0.832-1.125,0.932c-1.122,0-2.492-0.727-4.108-2.172 c-0.395-0.524-0.615-0.938-0.665-1.243c0-0.771,1-1.545,3.001-2.336v-0.312c-0.591-2.247-0.888-3.85-0.888-4.815v-0.768 L56.329,79.638z M55.988,88.64v0.161c0.927,0.623,1.597,0.932,2.011,0.932h0.221c-0.375-1.556-0.669-2.337-0.887-2.337h-0.221 l-0.681,0.312C56.432,88.022,56.283,88.335,55.988,88.64z"/> </g>
<g class="monkey"> <path d="M67.734,88.656l0.369-2.271v-0.068h-0.068c-0.377,0.928-1.034,2.264-1.979,4.018c-0.315,0.448-0.85,1.418-1.61,2.915 l-2.848,4.47c-1.118,1.597-2.141,2.788-3.067,3.576h-0.22c-0.073,0-0.147-0.072-0.221-0.219c0-0.229,0.413-0.744,1.238-1.542 c2.1-2.761,3.658-5.121,4.679-7.083c2.703-4.566,4.262-7.811,4.673-9.725l0.373-0.068h0.068c0.12,0,0.195,0.194,0.223,0.592 c-0.387,1.192-0.802,4.09-1.24,8.693v0.138c0,1.455,0.295,2.309,0.881,2.555c0.661,0,1.462-0.85,2.408-2.555 c0.685-1.661,2.15-4.269,4.384-7.816c0.068,0,0.432-0.388,1.104-1.168l0.287-0.22h0.068c0.104,0.018,0.151,0.068,0.151,0.154 c0,0.253-0.291,0.911-0.877,1.966c-0.597,1.247-1.134,2.686-1.61,4.316c-0.486,1.88-0.78,3.367-0.884,4.459 c0,0.045,0.027,0.069,0.086,0.069l-0.154,1.236l0.154,1.1c0,0.048-0.027,0.068-0.086,0.068c0.25,1.936,0.617,3.227,1.104,3.877 v0.374c0,0.092-0.052,0.137-0.151,0.137c-0.76,0-1.294-1.507-1.596-4.524v-1.1c0-1.792,0.288-3.662,0.866-5.628 c0.1-0.504,0.347-1.306,0.729-2.404c-0.191,0.208-0.411,0.548-0.647,1.017c0.045,0,0.069,0.024,0.069,0.068 c-0.154,0-0.641,0.829-1.456,2.49l-1.61,3.066c-0.726,1.175-1.482,1.76-2.271,1.76c-0.651,0-1.113-0.387-1.388-1.168l-0.223-1.76 v-0.151L67.734,88.656z"/> <path d="M81.007,85.532h0.082c0.874,0,1.497,0.356,1.87,1.076c0.202,0.363,0.306,0.815,0.306,1.346c0,1.936-1.024,3.549-3.069,4.84 c-0.322,0.179-0.754,0.329-1.295,0.456c-1.027,0-1.672-0.168-1.938-0.511c-0.504-0.171-0.754-0.774-0.754-1.802 c0-0.989,0.425-2.172,1.277-3.549C78.455,86.152,79.634,85.532,81.007,85.532z M76.962,91.103l0.082,0.123l-0.082,0.113 c0.175,0.897,0.726,1.346,1.65,1.346c0.438,0,1.117-0.322,2.021-0.963c1.35-1.312,2.024-2.603,2.024-3.877 c0-0.606-0.35-1.168-1.045-1.692c-0.247,0-0.373-0.037-0.373-0.109c-0.99,0-1.967,0.466-2.929,1.401 C77.414,88.738,76.962,89.958,76.962,91.103z"/> <path d="M85.162,85.354h0.425l0.137,0.068c-0.089,0.377-0.137,0.757-0.137,1.145v0.452c1.017-0.99,1.977-1.487,2.877-1.487v-0.055 c1.302,0.109,1.952,0.473,1.952,1.09c0.145,0.219,0.22,0.637,0.22,1.246c0,1.306-0.555,3.097-1.665,5.382l-0.205,0.109h-0.22 c-0.068,0-0.137-0.072-0.223-0.223c1.065-2.363,1.597-3.967,1.597-4.812V88.16c0-0.038,0.023-0.055,0.068-0.055l-0.068-0.124 c0-0.027,0.023-0.041,0.068-0.041l-0.068-0.127c0-0.034,0.023-0.055,0.068-0.055c0-1.109-0.483-1.661-1.442-1.661 c-0.9,0-1.863,0.651-2.891,1.952c-0.432,0.86-0.891,2.176-1.377,3.937c-0.182,0.814-0.346,1.236-0.493,1.264h-0.356 c-0.075,0-0.147-0.079-0.223-0.236c1.011-3.179,1.61-5.2,1.805-6.049l-0.071-0.233c0.044-0.664,0.093-1.007,0.141-1.034 c-0.048-0.062-0.069-0.138-0.069-0.22C85.028,85.396,85.08,85.354,85.162,85.354z"/> <path d="M97.171,79.922l0.041,0.096v0.302c-2.103,2.422-3.438,4.439-4.021,6.053c-0.417,0.764-0.705,1.511-0.849,2.243 c0.328-0.397,0.777-0.911,1.35-1.541c1.253-1.045,2.178-1.658,2.774-1.843c0.137-0.12,0.623-0.336,1.445-0.647 c0.671-0.291,1.247-0.442,1.733-0.442l0.055,0.097v0.153c0,0.11-0.479,0.306-1.445,0.593c-1.015,0.466-1.562,0.699-1.638,0.699 c-1.079,0.523-2.138,1.336-3.176,2.436c-0.181,0.25-0.448,0.564-0.798,0.948c0.213,0.616,0.891,1.658,2.035,3.124 c0.634,0.421,0.952,0.754,0.952,1.004v0.041l-0.151,0.096h-0.055c-0.294,0-0.973-0.678-2.038-2.034 c-0.441-0.606-0.771-1.183-0.989-1.733h-0.055c-0.432,0.606-0.647,1.315-0.647,2.13c-0.027,0-0.041,0.1-0.041,0.306l0.041,0.301 c-0.027,0.131-0.041,0.243-0.041,0.343c0,0.065,0.03,0.295,0.096,0.688h-0.055c0.064,0.223,0.133,0.637,0.205,1.25l-0.055,0.096 l-0.096-0.055l-0.25,0.055c-0.089-0.253-0.192-0.75-0.302-1.482v-1.154c0-1.056,0.22-2.247,0.647-3.576 c0.268-0.911,0.531-1.59,0.798-2.038c0.377-1.202,1.37-2.854,2.987-4.964c0.904-1.027,1.384-1.541,1.428-1.541H97.171 L97.171,79.922z"/> <path d="M101.871,85.56c0.846,0,1.438,0.274,1.777,0.826v0.825c0,0.384-0.339,0.897-1.018,1.541 c-1.514,0.99-3.188,1.487-5.021,1.487c-0.103,0-0.425-0.021-0.966-0.055v0.055c-0.082,0.493-0.123,0.805-0.123,0.932v0.441 c0.343,0.624,0.719,0.936,1.144,0.936c0,0.037,0.151,0.075,0.452,0.109c0.983,0,2.042-0.438,3.179-1.318 c0.048,0,0.109-0.018,0.192-0.059c0.191,0.075,0.298,0.15,0.314,0.223v0.055c-1.034,1.1-2.178,1.651-3.438,1.651h-0.507 c-0.973,0-1.604-0.477-1.897-1.429c-0.049-0.205-0.069-0.37-0.069-0.5c0-1.593,1.186-3.261,3.562-5.005 C100.388,85.8,101.192,85.56,101.871,85.56z M97.03,89.52v0.113c0.367,0.037,0.641,0.055,0.826,0.055 c1.705-0.223,3.021-0.586,3.945-1.1c0.891-0.65,1.336-1.22,1.336-1.706v-0.273c-0.267-0.333-0.63-0.497-1.086-0.497h-0.564 c-0.822,0.164-1.696,0.606-2.614,1.319C98.075,88.184,97.462,88.883,97.03,89.52z"/> <path d="M105.532,85.409h0.164c0.12,0.038,0.179,0.157,0.179,0.356c-1.347,1-2.021,2.12-2.021,3.356 c-0.044,0.284-0.068,0.634-0.068,1.049v0.232c0,0.657,0.271,1.281,0.812,1.87c0.41,0.302,0.835,0.452,1.28,0.452 c1.319,0,2.48-1.004,3.48-3.011c0.236-0.486,0.356-1.373,0.356-2.668c0-0.422-0.062-0.836-0.179-1.24 c0.034-0.227,0.097-0.343,0.179-0.343h0.232c0.158,0,0.271,0.425,0.343,1.281c0,0.045-0.018,0.068-0.055,0.068l0.055,0.288v0.812 c0,0.082-0.018,0.161-0.055,0.233c0.037,0.064,0.055,0.144,0.055,0.236v0.055c0,0.209-0.075,0.479-0.233,0.809l0.069,0.109 c-0.268,1.644-0.692,3.158-1.281,4.542c-0.795,2.007-1.822,3.768-3.079,5.281c-1.319,1.322-2.483,1.98-3.494,1.98 c0,0.075-0.209,0.109-0.634,0.109c-1.192,0-2.062-0.541-2.61-1.624c-0.157-0.246-0.236-0.654-0.236-1.223 c0.059-0.825,0.5-1.654,1.333-2.49c0.746-0.432,1.288-0.644,1.623-0.644h0.291c0.093,0,0.151,0.096,0.179,0.287 c-0.127,0.09-0.688,0.343-1.679,0.754l-0.812,0.938c0,0.089-0.116,0.418-0.356,0.977v0.123c0,0.449,0.198,0.97,0.589,1.565 c0.617,0.47,1.134,0.706,1.556,0.706c1.705,0,3.22-0.933,4.542-2.796c0.445-0.459,1.103-1.6,1.966-3.425 c0.432-0.99,0.781-1.979,1.059-2.97c-1.027,1.284-2.079,1.925-3.148,1.925c-1.195,0-2.024-0.582-2.493-1.747 c-0.154-0.4-0.254-0.887-0.288-1.455C103.151,87.876,103.946,86.29,105.532,85.409z"/> </g>
</svg>
