<svg version="1.1" id="Layer_1" xmlns="http://www.w3.org/2000/svg" xmlns:xlink="http://www.w3.org/1999/xlink" x="0px" y="0px" viewBox="0 0 481 118.284" xml:space="preserve">
    <g>
        <path d="M68.613,2.129h3.76c5.062,1.656,7.593,4.328,7.593,8.019c-3.17,0.709-4.755,1.515-4.755,2.411
            l-2.767-0.283l0.638-1.489l-0.78-0.284l-0.568,1.633l-0.71-0.285l-0.283-0.922l-1.065-0.354l0.851,1.206
            c-11.165,0-22.803,4.565-34.912,13.695l-2.839,4.045c0,2.792,14.145,7.617,42.435,14.476c5.156,2.367,9.249,5.299,12.277,8.799
            v2.484c-10.598,10.313-25.357,17.553-44.28,21.713L30.01,79.405l-0.994-0.852l-2.838,0.852c-12.489,0-20.65-3.761-24.482-11.282
            V66.49c1.465-3.217,2.72-4.825,3.761-4.825c4.258,4.164,8.349,6.859,12.276,8.089h3.761c19.963,0,36.617-5.367,49.957-16.107
            v-1.632c-21.194-5.062-35.338-9.084-42.435-12.064c-6.292-4.636-9.438-9.461-9.438-14.476C22.18,18.71,33.179,11.991,52.576,5.322
            C57.779,3.192,63.125,2.129,68.613,2.129z"/>
        <path d="M94.94,31.41c6.387,0,11.235,6.741,14.547,20.224h1.277c2.365-9.98,5.723-14.973,10.077-14.973
            c4.352,0.899,9.626,8.138,15.825,21.715c1.513,2.412,4.659,5.652,9.438,9.72v0.711c0,2.649-0.852,4.376-2.555,5.18
            c-3.264,0-8.302-4.941-15.114-14.829c-2.65-6.435-4.967-10.433-6.955-11.994c-1.514,1.326-4.447,8.303-8.799,20.933l-0.639,0.711
            h-1.916c-2.555-0.852-6.151-9.32-10.786-25.405l-0.568-0.708h-0.639l-1.277,5.961v2.979c0,8.468,2.72,18.403,8.161,29.804v2.343
            h-1.207C96.667,81.272,92.03,69.8,89.902,49.363v-2.979C89.902,39.241,91.581,34.248,94.94,31.41z"/>
        <path d="M171.791,34.957l4.471,1.704c0.235,4.116-0.923,9.579-3.478,16.392l-0.638,4.896
            c0.094,4.685,2.176,8.777,6.245,12.278l0.354,3.619c-1.703,0.236-3.099,0.354-4.187,0.354c-2.887,0-6.316-2.886-10.29-8.658
            l-1.135-5.18l-0.284-1.773l-0.568,0.07c-9.129,8.516-16.013,12.939-20.649,13.271c-2.744-0.331-4.471-1.23-5.181-2.697
            l-0.497-3.336C139.031,45.886,150.975,35.573,171.791,34.957z M145.251,62.49l3.336-2.482
            c10.738-8.374,16.817-14.476,18.236-18.309h-0.567C154.003,45.91,147.001,52.839,145.251,62.49z"/>
        <path d="M202.588,35.1c4.872,0.946,7.31,3.264,7.31,6.954c-0.947,2.082-1.917,3.218-2.91,3.406l-2.98-0.639
            l-11.708,26.257l-5.109,0.638h-1.491c-4.873-4.4-7.309-10.832-7.309-19.301v-2.769c0-5.061,0.733-7.593,2.199-7.593h2.2
            c2.791,0,4.494,5.3,5.109,15.895h0.78C193.693,42.718,198.33,35.1,202.588,35.1z"/>
        <path d="M220.116,14.31h2.696c1.703,0,3.832,8.443,6.387,25.332l1.063,2.979l8.515-0.779
            c12.111,0,18.166,1.49,18.166,4.47l-1.063,1.49l-0.568-0.71l-2.625,1.489l-0.568-0.779h-0.496l-2.128,0.779v-0.779l-0.568,0.779
            h-1.562v-0.779l-14.973,1.49c3.217,8.753,4.825,14.736,4.825,17.953c-1.467,2.509-3.265,3.998-5.394,4.471
            c-5.393,0-11.968-3.477-19.727-10.432c-1.892-2.507-2.956-4.493-3.193-5.96c0-3.69,4.801-7.427,14.405-11.212v-1.491
            c-2.838-10.786-4.258-18.496-4.258-23.132v-3.69L220.116,14.31z M218.483,57.524v0.78c4.446,2.979,7.663,4.469,9.65,4.469h1.065
            c-1.799-7.472-3.218-11.21-4.258-11.21h-1.066l-3.263,1.489C220.612,54.568,219.902,56.058,218.483,57.524z"/>
    </g>
    <g>
        <g>
            <path d="M281.202,28.813h0.33c0.571,0,0.925,0.947,1.057,2.841c-1.85,5.721-3.83,19.632-5.943,41.729v0.661
                c0,6.999,1.407,11.093,4.227,12.281c3.169,0,7.02-4.095,11.555-12.281c3.303-7.968,10.323-20.471,21.063-37.506
                c0.309,0,2.068-1.87,5.282-5.613l1.387-1.057h0.33c0.485,0.089,0.728,0.332,0.728,0.729c0,1.232-1.41,4.381-4.227,9.44
                c-2.861,5.988-5.438,12.899-7.726,20.734c-2.333,9.025-3.741,16.156-4.226,21.394c0,0.221,0.131,0.331,0.396,0.331l-0.726,5.942
                l0.726,5.282c0,0.221-0.132,0.332-0.396,0.332c1.188,9.286,2.949,15.494,5.282,18.619v1.782c0,0.441-0.243,0.66-0.728,0.66
                c-3.653,0-6.205-7.241-7.659-21.725v-5.281c0-8.585,1.388-17.586,4.161-27.008c0.484-2.42,1.65-6.272,3.498-11.555
                c-0.923,1.013-1.958,2.641-3.103,4.887c0.22,0,0.331,0.111,0.331,0.329c-0.75,0-3.082,3.986-7,11.953l-7.726,14.725
                c-3.479,5.636-7.11,8.452-10.895,8.452c-3.126,0-5.349-1.871-6.669-5.613l-1.057-8.452v-0.727l0.33-2.047
                c-0.221-0.438-0.33-0.925-0.33-1.453c0.792-8.275,1.387-12.588,1.782-12.94c-0.265-0.483-0.396-0.836-0.396-1.057l1.782-10.896
                v-0.33h-0.33c-1.806,4.448-4.975,10.874-9.51,19.281c-1.496,2.157-4.07,6.822-7.725,13.997l-13.669,21.461
                c-5.37,7.658-10.277,13.383-14.724,17.167h-1.057c-0.353,0-0.705-0.35-1.056-1.057c0-1.1,1.979-3.563,5.941-7.396
                c10.081-13.248,17.565-24.584,22.45-34.005c12.987-21.922,20.471-37.482,22.451-46.683L281.202,28.813z"/>
            <path d="M338.583,42.614h0.396c4.182,0,7.175,1.718,8.979,5.15c0.969,1.761,1.453,3.918,1.453,6.47
                c0,9.29-4.909,17.036-14.725,23.243c-1.541,0.838-3.609,1.564-6.206,2.179c-4.932,0-8.034-0.812-9.312-2.441
                c-2.421-0.836-3.631-3.719-3.631-8.652c0-4.753,2.046-10.431,6.141-17.035C326.344,45.586,331.98,42.614,338.583,42.614z
                 M319.169,69.357l0.396,0.594l-0.396,0.528c0.836,4.314,3.477,6.47,7.923,6.47c2.114,0,5.35-1.54,9.707-4.623
                c6.472-6.294,9.707-12.499,9.707-18.619c0-2.904-1.674-5.611-5.018-8.121c-1.189,0-1.784-0.177-1.784-0.528
                c-4.753,0-9.442,2.244-14.063,6.735C321.325,57.998,319.169,63.854,319.169,69.357z"/>
            <path d="M358.523,41.757h2.047l0.66,0.329c-0.44,1.804-0.66,3.632-0.66,5.481v2.179
                c4.886-4.754,9.485-7.132,13.801-7.132v-0.264c6.25,0.527,9.376,2.268,9.376,5.217c0.703,1.057,1.057,3.059,1.057,6.007
                c0,6.253-2.664,14.857-7.99,25.819l-0.991,0.528h-1.056c-0.309,0-0.66-0.352-1.057-1.057c5.106-11.358,7.66-19.061,7.66-23.111
                v-0.528c0-0.174,0.109-0.264,0.33-0.264l-0.33-0.593c0-0.135,0.109-0.2,0.33-0.2l-0.33-0.595c0-0.176,0.109-0.263,0.33-0.263
                c0-5.327-2.312-7.99-6.934-7.99c-4.314,0-8.937,3.126-13.866,9.376c-2.07,4.14-4.27,10.434-6.604,18.886
                c-0.881,3.918-1.673,5.941-2.376,6.073h-1.718c-0.351,0-0.703-0.373-1.057-1.122c4.842-15.274,7.726-24.96,8.65-29.054
                l-0.33-1.122c0.22-3.169,0.439-4.82,0.66-4.952c-0.221-0.308-0.33-0.66-0.33-1.056C357.885,41.954,358.127,41.757,358.523,41.757z
                "/>
            <path d="M416.168,15.673l0.198,0.462v1.454c-10.081,11.621-16.508,21.306-19.281,29.053
                c-2.024,3.656-3.39,7.241-4.095,10.763c1.586-1.893,3.741-4.357,6.472-7.396c6.031-5.017,10.477-7.966,13.339-8.847
                c0.66-0.572,2.973-1.607,6.933-3.104c3.213-1.408,5.986-2.113,8.32-2.113l0.265,0.462v0.727c0,0.528-2.312,1.475-6.934,2.838
                c-4.887,2.247-7.506,3.369-7.858,3.369c-5.194,2.509-10.279,6.405-15.253,11.688c-0.88,1.188-2.156,2.707-3.829,4.555
                c1.013,2.951,4.27,7.946,9.772,14.989c3.037,2.024,4.556,3.633,4.556,4.821v0.197l-0.727,0.463h-0.264
                c-1.409,0-4.666-3.257-9.772-9.772c-2.113-2.906-3.697-5.679-4.754-8.32h-0.266c-2.069,2.905-3.103,6.317-3.103,10.234
                c-0.132,0-0.198,0.485-0.198,1.453l0.198,1.452c-0.132,0.618-0.198,1.168-0.198,1.651c0,0.309,0.155,1.408,0.463,3.302h-0.265
                c0.307,1.057,0.639,3.061,0.99,6.008l-0.264,0.463l-0.462-0.264l-1.189,0.264c-0.439-1.231-0.923-3.609-1.451-7.131v-5.548
                c0-5.062,1.033-10.783,3.103-17.167c1.277-4.357,2.553-7.615,3.83-9.773c1.804-5.767,6.579-13.712,14.328-23.837
                c4.358-4.929,6.647-7.396,6.867-7.396H416.168z"/>
            <path d="M438.752,42.746c4.048,0,6.887,1.32,8.518,3.962v3.963c0,1.848-1.631,4.312-4.888,7.394
                c-7.263,4.755-15.298,7.132-24.101,7.132c-0.485,0-2.024-0.087-4.622-0.265v0.265c-0.396,2.376-0.595,3.874-0.595,4.489v2.112
                c1.629,2.996,3.455,4.492,5.481,4.492c0,0.176,0.727,0.352,2.178,0.528c4.712,0,9.795-2.114,15.254-6.339
                c0.22,0,0.528-0.088,0.925-0.266c0.924,0.354,1.43,0.706,1.518,1.057v0.265c-4.974,5.283-10.477,7.924-16.507,7.924h-2.442
                c-4.668,0-7.705-2.288-9.114-6.867c-0.219-0.968-0.33-1.761-0.33-2.378c0-7.658,5.702-15.669,17.104-24.033
                C431.62,43.89,435.492,42.746,438.752,42.746z M415.508,61.762v0.528c1.76,0.178,3.081,0.266,3.963,0.266
                c8.188-1.057,14.504-2.817,18.949-5.283c4.27-3.125,6.406-5.854,6.406-8.186v-1.322c-1.278-1.584-3.017-2.376-5.216-2.376h-2.708
                c-3.961,0.792-8.146,2.904-12.547,6.339C420.527,55.336,417.577,58.682,415.508,61.762z"/>
            <path d="M456.314,42.02h0.793c0.572,0.176,0.859,0.749,0.859,1.716c-6.472,4.799-9.707,10.17-9.707,16.113
                c-0.222,1.363-0.33,3.038-0.33,5.018v1.122c0,3.169,1.297,6.164,3.896,8.979c1.981,1.453,4.027,2.181,6.142,2.181
                c6.339,0,11.906-4.822,16.706-14.461c1.144-2.332,1.716-6.603,1.716-12.811c0-2.023-0.287-4.005-0.858-5.942
                c0.176-1.101,0.462-1.649,0.858-1.649h1.123c0.748,0,1.297,2.047,1.65,6.139c0,0.221-0.088,0.332-0.264,0.332l0.264,1.387v3.895
                c0,0.396-0.088,0.771-0.264,1.122c0.176,0.308,0.264,0.684,0.264,1.123v0.265c0,1.012-0.374,2.311-1.122,3.896l0.33,0.528
                c-1.277,7.881-3.324,15.143-6.142,21.79c-3.829,9.639-8.76,18.092-14.791,25.355c-6.339,6.339-11.93,9.508-16.771,9.508
                c0,0.354-1.012,0.528-3.038,0.528c-5.721,0-9.904-2.596-12.545-7.792c-0.748-1.188-1.123-3.146-1.123-5.876
                c0.265-3.961,2.4-7.945,6.405-11.95c3.565-2.068,6.164-3.104,7.791-3.104h1.387c0.44,0,0.728,0.462,0.858,1.385
                c-0.614,0.441-3.301,1.652-8.055,3.632l-3.896,4.491c0,0.438-0.572,2.003-1.717,4.688v0.594c0,2.157,0.948,4.666,2.84,7.528
                c2.949,2.243,5.438,3.366,7.462,3.366c8.187,0,15.45-4.466,21.789-13.403c2.156-2.2,5.305-7.682,9.443-16.442
                c2.068-4.754,3.763-9.509,5.084-14.263c-4.931,6.164-9.972,9.244-15.121,9.244c-5.724,0-9.707-2.795-11.952-8.385
                c-0.749-1.937-1.212-4.271-1.387-7C444.892,53.861,448.698,46.246,456.314,42.02z"/>
        </g>
    </g>
</svg>
